<svg xmlns="http://www.w3.org/2000/svg" fill="none" viewBox="0 0 106.20691 111.9815"><path fill="url(#a)" d="M41.021 27.68a10.944 10.944 0 0 0 1.446-5.447c0-5.913-4.612-10.704-10.303-10.704-4.36 0-8.08 2.818-9.584 6.794L.186 75.823a5.903 5.903 0 0 0-.518 2.4c0 3.184 2.484 5.764 5.548 5.764 2.025 0 3.778-1.136 4.746-2.82z"/><path fill="url(#b)" d="M22.11 24.555c-.407-1.906-.366-3.985.477-6.177 1.407-3.663 4.658-6.363 8.433-6.785 5.23-.587 9.765 2.9 11.064 7.782l21.771 71.951a16.088 16.088 0 0 1 .293 9.044c-1.554 6.09-6.613 10.716-12.633 11.488-8.295 1.064-15.45-4.894-16.746-12.914z"/><path fill="url(#c)" d="M103.268 30.763a21.157 21.157 0 0 0 2.534-11.929C105.003 8.951 97.278.901 87.762.074 78.747-.71 70.872 4.786 67.718 12.81L35.854 89.964a16.148 16.148 0 0 0-1.17 8.543c.94 7.086 6.58 12.722 13.434 13.4 6.382.632 12.035-2.876 14.78-8.238z"/><defs><linearGradient id="a" x1="5.426" x2="12.643" y1="22.274" y2="8.341" gradientTransform="matrix(5 0 0 5 -24.331 -27.953)" gradientUnits="userSpaceOnUse"><stop offset=".1" stop-color="#0096FF"/><stop offset=".179" stop-color="#1680FF"/><stop offset=".389" stop-color="#4D49FF"/><stop offset=".569" stop-color="#7521FF"/><stop offset=".712" stop-color="#8D09FF"/><stop offset=".8" stop-color="#9600FF"/></linearGradient><linearGradient id="b" x1="10.453" x2="15.943" y1="8.056" y2="27.777" gradientTransform="matrix(5 0 0 5 -24.331 -27.953)" gradientUnits="userSpaceOnUse"><stop offset=".1" stop-color="#9600FF"/><stop offset=".266" stop-color="#B600DF"/><stop offset=".5" stop-color="#DE00B7"/><stop offset=".686" stop-color="#F6009F"/><stop offset=".8" stop-color="#FF0096"/></linearGradient><linearGradient id="c" x1="13.459" x2="24.494" y1="27.666" y2="6.362" gradientTransform="matrix(5 0 0 5 -24.331 -27.953)" gradientUnits="userSpaceOnUse"><stop offset=".1" stop-color="#FF0096"/><stop offset=".19" stop-color="#FF1680"/><stop offset=".427" stop-color="#FF4D49"/><stop offset=".633" stop-color="#FF7521"/><stop offset=".795" stop-color="#FF8D09"/><stop offset=".895" stop-color="#FF9600"/></linearGradient></defs></svg>